PathFileType	4	(X/Y/Z)	C:/Users/beibeiliu/ov580/test_trc/User3\sequence.30_training_dense_left.trc
DataRate	CameraRate	NumFrames	NumMarkers	Units	OrigDataRate	OrigDataStartFrame	OrigNumFrames
120	120	9	19	mm	120	1	99
Frame#	Time	ThumbCMC			ThumbMCP			ThumbIP			ThumbTip			IndexMCP			IndexPIP			IndexTip			MiddleMCP			MiddlePIP			MiddleTip			RingMCP			RingPIP			RingTip			PinkyMCP			PinkyPIP			PinkyTip			BackHand1			BackHand2			BackHand3	
		X0	Y0	Z0	X1	Y1	Z1	X2	Y2	Z2	X3	Y3	Z3	X4	Y4	Z4	X5	Y5	Z5	X6	Y6	Z6	X7	Y7	Z7	X8	Y8	Z8	X9	Y9	Z9	X10	Y10	Z10	X11	Y11	Z11	X12	Y12	Z12	X13	Y13	Z13	X14	Y14	Z14	X15	Y15	Z15	X16	Y16	Z16	X17	Y17	Z17	X18	Y18	Z18	
0	0	-97.1063	-23.8469	18.526	-81.7669	-50.7084	2.02486	-66.3791	-70.2463	-17.1459	-58.1503	-88.2032	-32.8173	-108.721	-44.8474	-53.2068	-92.3648	-62.7729	-65.0145	-76.689	-86.6582	-76.722	-127.555	-57.1001	-56.9405	-116.292	-77.1669	-73.5652	-102.25	-101.505	-88.0478	-142.217	-69.0464	-47.6835	-136.731	-85.584	-60.7305	-127.829	-108.132	-72.9625	-160.02	-81.4759	-28.5099	-154.724	-96.9788	-37.3434	-145.801	-115.325	-51.448	-160.801	-32.2728	-7.26661	-164.177	-21.7067	26.8695	-135.55	-9.61071	4.01804	
1	0.00833333	-123.189	-10.8198	14.1822	-98.1693	-28.2232	-2.00513	-81.3878	-42.8229	-19.2498	-62.5215	-53.0068	-34.554	-125.113	-43.2556	-52.379	-102.104	-55.1517	-64.9808	-80.5012	-68.2624	-74.5315	-132.647	-61.5395	-54.0478	-116.439	-72.3473	-66.3207	-92.0023	-89.913	-81.3443	-143.641	-79.9438	-38.0435	-126.976	-89.1652	-52.1964	-107.111	-108.057	-66.9425	-149.688	-89.6158	-16.7209	-133.111	-108.064	-29.1315	-122.572	-120.072	-38.3634	-174.659	-50.2748	2.2525	-180.727	-37.0221	27.9527	-162.164	-15.9976	2.40032	
2	0.0166667	-148.04	-4.78966	13.1259	-119.704	-12.8872	-1.51715	-93.6987	-18.4502	-24.2989	-78.747	-21.0419	-33.2388	-131.692	-38.5062	-54.3913	-111.313	-43.3509	-62.3825	-88.1245	-42.3148	-73.5964	-135.71	-63.785	-47.6613	-112.303	-65.8927	-61.8262	-85.5622	-68.4101	-76.5613	-136.85	-77.3248	-32.6119	-112.246	-86.4841	-47.4313	-90.2802	-95.5377	-57.7396	-135.09	-93.3306	-9.05712	-114.295	-101.884	-17.2825	-96.7819	-107.98	-26.7532	-176.253	-65.4424	6.29955	-185.371	-51.7292	31.1282	-180.971	-28.9273	5.58614	
3	0.025	-163.079	-2.84478	6.95583	-134.081	-4.15464	-4.83191	-110.836	-0.782683	-23.9237	-95.2462	4.04022	-34.1746	-137.868	-35.445	-52.3994	-115.597	-27.1113	-65.8465	-95.2197	-26.8201	-71.1486	-134.514	-56.4096	-45.3213	-108.108	-53.5403	-60.8185	-82.1484	-49.6202	-73.9615	-126.933	-70.566	-31.1444	-103.589	-72.6961	-42.7129	-84.1381	-72.3085	-52.9674	-124.642	-80.4171	-5.98951	-102.286	-84.7561	-15.5233	-81.7684	-89.7345	-22.1279	-168.591	-69.2947	6.42789	-182.047	-62.879	34.3807	-186.873	-37.8174	3.41897	
4	0.0333333	-175.132	-3.02057	10.7221	-146.577	6.84135	-9.90639	-127.421	17.83	-28.0837	-112.168	25.1835	-41.5065	-148.123	-25.9386	-54.4396	-128.728	-16.1343	-66.5151	-109.01	-4.76185	-78.2061	-132.198	-44.7756	-52.7271	-110.358	-35.0038	-66.7706	-89.9725	-26.8097	-79.8801	-120.523	-59.6732	-29.9696	-100.206	-52.9352	-48.1501	-77.3399	-48.0234	-58.64	-111.629	-67.9098	-6.4239	-96.2252	-63.3893	-18.5151	-73.4985	-63.8387	-26.405	-162.631	-67.954	6.54749	-178.128	-60.1264	30.5311	-186.663	-40.9396	4.10484	
5	0.0416667	-181.503	-4.64727	4.86072	-160.785	10.865	-14.2142	-143.133	22.6944	-37.5864	-132.284	35.5818	-51.3881	-158.517	-22.2188	-58.023	-136.783	-8.56945	-73.5293	-125.644	5.70352	-86.0041	-135.03	-39.7804	-55.5901	-121.274	-26.8597	-73.6952	-99.9076	-13.8415	-89.9098	-120.436	-49.3984	-36.803	-101.978	-39.9458	-55.3165	-84.8832	-31.1026	-67.3056	-109.96	-53.8364	-15.8035	-96.3386	-46.3677	-26.1647	-74.4264	-40.0926	-36.217	-159.936	-62.3656	5.48767	-169.257	-60.2967	31.9592	-188.663	-41.8001	3.43332	
6	0.05	-189.175	-11.253	2.75354	-172.755	6.37014	-20.6285	-159.148	17.4311	-40.2335	-149.897	27.2713	-59.016	-163.36	-30.1873	-63.5991	-156.88	-14.9458	-78.0255	-142.302	-1.04127	-93.8518	-142.776	-45.7201	-61.331	-135.583	-33.323	-79.9851	-118.211	-17.9819	-104.445	-130.609	-50.8423	-43.8783	-113.448	-41.848	-62.964	-97.9029	-30.1161	-84.4582	-110.021	-53.0143	-22.9545	-95.7016	-42.9153	-39.0138	-80.7821	-36.4633	-51.0017	-157.661	-64.5764	3.66846	-163.239	-65.1058	33.0409	-187.244	-53.0068	6.66005	
7	0.0583333	-196.518	-22.7082	8.78998	-183.041	-7.76329	-19.3407	-174.6	2.1297	-49.8907	-168.362	11.5964	-66.7765	-179.23	-47.7316	-62.6798	-171.956	-30.8668	-83.125	-161.287	-21.8246	-98.7538	-157.899	-61.846	-62.283	-150.627	-52.0005	-82.8902	-140.724	-37.3046	-113.639	-141.368	-65.6332	-47.3415	-125.15	-58.6729	-67.2922	-114.373	-49.8656	-87.9173	-118.202	-66.1759	-30.4866	-109.691	-58.1848	-44.0899	-93.5508	-50.1919	-63.8401	-157.392	-78.1748	7.12671	-163.636	-74.0921	33.5624	-194.145	-64.3461	9.79777	
8	0.0666667	-206.099	-36.1732	10.6834	-195.976	-26.3792	-20.0686	-190.508	-21.1168	-47.0331	-186.731	-15.1729	-71.7133	-201.434	-69.2733	-54.2784	-194.838	-55.6206	-80.0938	-190.152	-43.4423	-101.667	-181.317	-84.3716	-54.152	-172.187	-77.2235	-82.5784	-168.052	-68.1656	-109.934	-159.608	-87.0088	-45.4898	-149.47	-82.8737	-66.9447	-143.074	-75.2454	-93.2517	-137.579	-85.9385	-26.0981	-130.315	-80.4108	-45.2763	-116.582	-76.2073	-66.7239	-172.373	-91.0345	10.6828	-172.104	-83.3806	41.9964	-203.313	-75.0496	19.3466	
